<svg xmlns="http://www.w3.org/2000/svg" width="24" height="24" fill="none" viewBox="0 0 24 24">
  <path fill="currentColor" d="M2.028 11.25H7.01c.078-2.544.549-4.862 1.294-6.614.408-.96.913-1.785 1.512-2.382l.02-.02c-4.247.937-7.48 4.573-7.81 9.016Zm0 1.5a10.005 10.005 0 0 0 7.808 9.015 2.806 2.806 0 0 1-.02-.02c-.598-.595-1.103-1.42-1.511-2.38-.745-1.752-1.216-4.07-1.294-6.615H2.028Zm12.136 9.015c4.246-.936 7.479-4.571 7.808-9.015H16.99c-.078 2.545-.549 4.863-1.294 6.615-.408.96-.913 1.785-1.512 2.38a.126.126 0 0 1-.02.02Zm7.808-10.515a10.006 10.006 0 0 0-7.808-9.015l.02.02c.598.596 1.104 1.42 1.511 2.38.745 1.753 1.216 4.07 1.294 6.615h4.983Zm-8.847-7.932c-.415-.413-.794-.568-1.125-.568-.33 0-.71.155-1.125.568-.418.416-.829 1.055-1.19 1.904C9.032 6.76 8.59 8.87 8.512 11.25h6.976c-.078-2.38-.52-4.49-1.173-6.028-.361-.85-.772-1.488-1.19-1.904Zm1.19 15.46c.653-1.537 1.095-3.648 1.173-6.028H8.512c.078 2.38.52 4.491 1.173 6.028.361.85.772 1.489 1.19 1.905.415.413.794.567 1.125.567.33 0 .71-.154 1.125-.567.418-.416.829-1.055 1.19-1.905Z"/>
</svg>
