<svg xmlns="http://www.w3.org/2000/svg" width="24" height="24" fill="none" viewBox="0 0 24 24">
  <path fill="currentColor" d="m12.647 2.549.485-.572-.485.572Zm7.25 6.151-.485.572.485-.572Zm-15.794 0 .485.572-.485-.572Zm15.397.763v9.787H21V9.463h-1.5Zm-15 9.787V9.463H3v9.787h1.5Zm.088-9.978 7.25-6.151-.97-1.144-7.25 6.152.97 1.143Zm7.574-6.151 7.25 6.151.97-1.143-7.25-6.152-.97 1.144ZM10.75 15.5h2.5V14h-2.5v1.5Zm2.75.25v3.5H15v-3.5h-1.5Zm-3 3.5v-3.5H9v3.5h1.5Zm-1.75.25h-4V21h4v-1.5Zm6.5 1.5h4v-1.5h-4V21ZM9 19.25a.25.25 0 0 1-.25.25V21a1.75 1.75 0 0 0 1.75-1.75H9Zm4.5 0c0 .966.784 1.75 1.75 1.75v-1.5a.25.25 0 0 1-.25-.25h-1.5Zm-.25-3.75a.25.25 0 0 1 .25.25H15A1.75 1.75 0 0 0 13.25 14v1.5Zm-2.5-1.5A1.75 1.75 0 0 0 9 15.75h1.5a.25.25 0 0 1 .25-.25V14Zm1.088-10.88a.25.25 0 0 1 .324 0l.97-1.143a1.75 1.75 0 0 0-2.264 0l.97 1.144ZM3 19.25c0 .966.784 1.75 1.75 1.75v-1.5a.25.25 0 0 1-.25-.25H3Zm16.5 0a.25.25 0 0 1-.25.25V21A1.75 1.75 0 0 0 21 19.25h-1.5ZM21 9.463a1.75 1.75 0 0 0-.618-1.334l-.97 1.143a.25.25 0 0 1 .088.191H21Zm-16.5 0a.25.25 0 0 1 .088-.19l-.97-1.144A1.75 1.75 0 0 0 3 9.463h1.5Z"/>
</svg>
