<svg xmlns="http://www.w3.org/2000/svg" width="24" height="24" fill="none" viewBox="0 0 24 24">
  <path fill="currentColor" d="M11.25 3h-6.5A1.75 1.75 0 0 0 3 4.75v6.5h4.668A3.567 3.567 0 0 1 7 9.167C7 7.97 7.97 7 9.167 7a3.56 3.56 0 0 1 2.083.668V3ZM3 12.75v6.5c0 .966.784 1.75 1.75 1.75h6.5v-6.794a13.819 13.819 0 0 1-2.843 2.424.75.75 0 0 1-.814-1.26 12.341 12.341 0 0 0 2.928-2.62H3ZM12.75 21h6.5A1.75 1.75 0 0 0 21 19.25v-6.5h-7.521a12.342 12.342 0 0 0 2.928 2.62.75.75 0 0 1-.814 1.26 13.819 13.819 0 0 1-2.843-2.424V21ZM21 11.25v-6.5A1.75 1.75 0 0 0 19.25 3h-6.5v4.668A3.567 3.567 0 0 1 14.833 7C16.03 7 17 7.97 17 9.167a3.56 3.56 0 0 1-.668 2.083H21Z"/>
  <path fill="currentColor" d="M9.167 8.5c1.15 0 2.083.933 2.083 2.083v.667h-.667A2.083 2.083 0 0 1 8.5 9.167c0-.369.298-.667.667-.667Zm3.583 2.083v.667h.667c1.15 0 2.083-.933 2.083-2.083a.667.667 0 0 0-.667-.667c-1.15 0-2.083.933-2.083 2.083Z"/>
</svg>
