<svg xmlns="http://www.w3.org/2000/svg" width="24" height="24" fill="none" viewBox="0 0 24 24">
  <path fill="currentColor" fill-rule="evenodd" d="M21.5 11.406c0 2.952-1.374 5.584-3.518 7.307.087.117.16.247.216.387l.2.5a1.75 1.75 0 0 1-1.625 2.4H7.227a1.75 1.75 0 0 1-1.625-2.4l.2-.5c.056-.14.129-.27.216-.387C3.874 16.99 2.5 14.358 2.5 11.406 2.5 6.203 6.761 2 12 2s9.5 4.203 9.5 9.406ZM7.195 19.657a.25.25 0 0 1 .232-.157h9.146a.25.25 0 0 1 .232.157l.2.5a.25.25 0 0 1-.232.343H7.227a.25.25 0 0 1-.232-.343l.2-.5Zm5.638-13.56c.044-.13.29-.13.334 0 .127.373.328.833.615 1.12.287.288.748.49 1.121.616.13.044.13.29 0 .334-.373.126-.834.328-1.12.615-.288.287-.49.748-.616 1.12-.044.13-.29.13-.334 0-.126-.372-.328-.833-.615-1.12-.287-.287-.748-.489-1.12-.615-.13-.044-.13-.29 0-.334.372-.127.832-.328 1.12-.615.287-.288.489-.748.615-1.121Zm2.48 3.262c.048-.145.325-.145.375 0 .142.42.369.938.692 1.261.323.323.842.55 1.26.692.146.05.146.327 0 .376-.418.142-.937.369-1.26.692-.323.323-.55.842-.692 1.26-.05.146-.327.146-.376 0-.142-.418-.369-.937-.692-1.26-.323-.323-.842-.55-1.26-.692-.146-.05-.146-.327 0-.376.418-.142.937-.369 1.26-.692.323-.323.55-.842.692-1.26Z" clip-rule="evenodd"/>
</svg>
