<svg xmlns="http://www.w3.org/2000/svg" width="24" height="25" fill="none" viewBox="0 0 24 25">
  <path fill="currentColor" fill-rule="evenodd" d="M5 6.188C5 4.873 6.05 3.75 7.417 3.75h5.5c2.885 0 5.166 2.382 5.166 5.25a5.293 5.293 0 0 1-1.148 3.3A5.284 5.284 0 0 1 19 16.5c0 2.867-2.282 5.25-5.167 5.25H7.417C6.05 21.75 5 20.627 5 19.312V6.188Zm7.917 5.062c1.165 0 2.166-.975 2.166-2.25s-1.001-2.25-2.166-2.25H8v4.5h4.917ZM8 14.25h5.833c1.165 0 2.167.975 2.167 2.25s-1.002 2.25-2.167 2.25H8v-4.5Z" clip-rule="evenodd"/>
</svg>
