<svg xmlns="http://www.w3.org/2000/svg" width="24" height="24" fill="none" viewBox="0 0 24 24">
  <path fill="currentColor" d="M3.75 3.75V3a.75.75 0 0 0-.75.75h.75Zm16.5 0H21a.75.75 0 0 0-.75-.75v.75Zm0 16.5V21a.75.75 0 0 0 .75-.75h-.75Zm-16.5 0H3c0 .414.336.75.75.75v-.75ZM7.25 12a.75.75 0 0 0 1.5 0h-1.5Zm1.5-.01a.75.75 0 0 0-1.5 0h1.5Zm2.5.01a.75.75 0 0 0 1.5 0h-1.5Zm1.5-.01a.75.75 0 0 0-1.5 0h1.5ZM7.25 16a.75.75 0 0 0 1.5 0h-1.5Zm1.5-.01a.75.75 0 0 0-1.5 0h1.5Zm2.5.01a.75.75 0 0 0 1.5 0h-1.5Zm1.5-.01a.75.75 0 0 0-1.5 0h1.5Zm2.5-3.99a.75.75 0 0 0 1.5 0h-1.5Zm1.5-.01a.75.75 0 0 0-1.5 0h1.5Zm-13-7.49h16.5V3H3.75v1.5Zm15.75-.75v4H21v-4h-1.5Zm0 4v12.5H21V7.75h-1.5Zm.75 11.75H3.75V21h16.5v-1.5Zm-15.75.75V7.75H3v12.5h1.5Zm0-12.5v-4H3v4h1.5Zm-.75.75h16.5V7H3.75v1.5ZM7.5 12a.5.5 0 0 1 .5-.5V13a1 1 0 0 0 1-1H7.5Zm.5-.5a.5.5 0 0 1 .5.5H7a1 1 0 0 0 1 1v-1.5Zm.5.5a.5.5 0 0 1-.5.5V11a1 1 0 0 0-1 1h1.5Zm-.5.5a.5.5 0 0 1-.5-.5H9a1 1 0 0 0-1-1v1.5Zm.75-.5v-.01h-1.5V12h1.5Zm2.75 0a.5.5 0 0 1 .5-.5V13a1 1 0 0 0 1-1h-1.5Zm.5-.5a.5.5 0 0 1 .5.5H11a1 1 0 0 0 1 1v-1.5Zm.5.5a.5.5 0 0 1-.5.5V11a1 1 0 0 0-1 1h1.5Zm-.5.5a.5.5 0 0 1-.5-.5H13a1 1 0 0 0-1-1v1.5Zm.75-.5v-.01h-1.5V12h1.5ZM7.5 16a.5.5 0 0 1 .5-.5V17a1 1 0 0 0 1-1H7.5Zm.5-.5a.5.5 0 0 1 .5.5H7a1 1 0 0 0 1 1v-1.5Zm.5.5a.5.5 0 0 1-.5.5V15a1 1 0 0 0-1 1h1.5Zm-.5.5a.5.5 0 0 1-.5-.5H9a1 1 0 0 0-1-1v1.5Zm.75-.5v-.01h-1.5V16h1.5Zm2.75 0a.5.5 0 0 1 .5-.5V17a1 1 0 0 0 1-1h-1.5Zm.5-.5a.5.5 0 0 1 .5.5H11a1 1 0 0 0 1 1v-1.5Zm.5.5a.5.5 0 0 1-.5.5V15a1 1 0 0 0-1 1h1.5Zm-.5.5a.5.5 0 0 1-.5-.5H13a1 1 0 0 0-1-1v1.5Zm.75-.5v-.01h-1.5V16h1.5Zm2.75-4a.5.5 0 0 1 .5-.5V13a1 1 0 0 0 1-1h-1.5Zm.5-.5a.5.5 0 0 1 .5.5H15a1 1 0 0 0 1 1v-1.5Zm.5.5a.5.5 0 0 1-.5.5V11a1 1 0 0 0-1 1h1.5Zm-.5.5a.5.5 0 0 1-.5-.5H17a1 1 0 0 0-1-1v1.5Zm.75-.5v-.01h-1.5V12h1.5Z"/>
</svg>
