<svg xmlns="http://www.w3.org/2000/svg" width="24" height="24" fill="none" viewBox="0 0 24 24">
  <path fill="currentColor" d="M2.59 2.537a.75.75 0 1 0-1.18.926l.955 1.218A1.742 1.742 0 0 0 2 5.75v12.5c0 .966.784 1.75 1.75 1.75h10.5c.04 0 .08-.001.118-.004l1.542 1.967a.75.75 0 0 0 1.18-.926l-14.5-18.5Z"/>
  <path fill="currentColor" fill-rule="evenodd" d="M16 15.214v2L5.643 4h8.607c.967 0 1.75.784 1.75 1.75v3.037l4.191-2.096a1.25 1.25 0 0 1 1.81 1.118v8.382a1.25 1.25 0 0 1-1.81 1.118l-4.19-2.095Zm0-1.678 4.5 2.25V8.215l-4.5 2.25v3.072Z" clip-rule="evenodd"/>
</svg>
