<svg xmlns="http://www.w3.org/2000/svg" width="24" height="24" fill="none" viewBox="0 0 24 24">
  <path fill="currentColor" d="m13.043 3.043-.53.53.53-.53Zm5.914 5.914-.53.53.53-.53ZM4 10.75a.75.75 0 0 0 1.5 0H4Zm9.25 9.75a.75.75 0 0 0 0 1.5v-1.5Zm.25-17.25a.75.75 0 0 0-1.5 0h1.5ZM18.75 10a.75.75 0 0 0 0-1.5V10Zm-15 6.75V16a.75.75 0 0 0-.75.75h.75Zm6.5 0H11a.75.75 0 0 0-.75-.75v.75Zm0 4.5V22a.75.75 0 0 0 .75-.75h-.75Zm-6.5 0H3c0 .414.336.75.75.75v-.75Zm5.5-4.5v.75H10v-.75h-.75Zm-4.5 0H4v.75h.75v-.75Zm1-13.25h6.586V2H5.75v1.5ZM18.5 9.664V20.25H20V9.664h-1.5Zm-5.987-6.09 5.914 5.913 1.06-1.06-5.914-5.914-1.06 1.06ZM5.5 10.75v-7H4v7h1.5Zm12.75 9.75h-5V22h5v-1.5ZM20 9.664c0-.464-.184-.909-.513-1.237l-1.06 1.06a.25.25 0 0 1 .073.177H20ZM12.336 3.5a.25.25 0 0 1 .177.073l1.06-1.06A1.75 1.75 0 0 0 12.336 2v1.5ZM18.5 20.25a.25.25 0 0 1-.25.25V22A1.75 1.75 0 0 0 20 20.25h-1.5ZM5.75 2A1.75 1.75 0 0 0 4 3.75h1.5a.25.25 0 0 1 .25-.25V2ZM12 3.25v5h1.5v-5H12ZM13.75 10h5V8.5h-5V10ZM12 8.25c0 .966.784 1.75 1.75 1.75V8.5a.25.25 0 0 1-.25-.25H12ZM3.75 17.5h6.5V16h-6.5v1.5Zm5.75-.75v4.5H11v-4.5H9.5Zm.75 3.75h-6.5V22h6.5v-1.5Zm-5.75.75v-4.5H3v4.5h1.5Zm4-5.25v.75H10V16H8.5Zm.75 0h-4.5v1.5h4.5V16Zm-3.75.75V16H4v.75h1.5ZM7 14.5A1.5 1.5 0 0 1 8.5 16H10a3 3 0 0 0-3-3v1.5ZM7 13a3 3 0 0 0-3 3h1.5A1.5 1.5 0 0 1 7 14.5V13Z"/>
</svg>
