<svg xmlns="http://www.w3.org/2000/svg" width="24" height="25" fill="none" viewBox="0 0 24 25">
  <path fill="currentColor" fill-rule="evenodd" d="M13.079 2.666a4.583 4.583 0 0 1 5.775 2.943l2.563 7.887a4.583 4.583 0 0 1-2.943 5.775l-7.886 2.563a4.583 4.583 0 0 1-5.776-2.943L2.25 11.004A4.583 4.583 0 0 1 5.192 5.23l7.887-2.563Zm-2.035 8.52a1.2 1.2 0 0 1 .593.143c.143.081.302.295.348.36a.072.072 0 0 1 .013.042v-.397c0-.041.033-.075.075-.075h.818c.041 0 .075.034.075.075v2.878a.075.075 0 0 1-.075.075h-.8a.075.075 0 0 1-.076-.075v-.397a.072.072 0 0 1-.01.038c-.09.145-.216.265-.38.361a1.135 1.135 0 0 1-.581.147c-.436 0-.798-.152-1.086-.455-.286-.303-.428-.68-.428-1.133 0-.452.142-.83.428-1.133.288-.303.65-.454 1.086-.454Zm.197 2.356a.709.709 0 0 0 .53-.214.768.768 0 0 0 .209-.555.758.758 0 0 0-.208-.551.704.704 0 0 0-.531-.218.684.684 0 0 0-.523.22.767.767 0 0 0-.205.55c0 .22.068.404.205.551a.688.688 0 0 0 .523.217Zm-3.93-1.646c0 .073.094.104.136.045l1.277-1.76a.075.075 0 0 1 .06-.03h.975c.061 0 .097.069.06.118l-1.355 1.883a.075.075 0 0 0 0 .087l1.435 2c.036.05 0 .12-.06.12H8.825a.075.075 0 0 1-.06-.033L7.447 12.46a.075.075 0 0 0-.137.044v1.78a.075.075 0 0 1-.075.075h-.874a.075.075 0 0 1-.075-.075v-4.058c0-.041.034-.075.075-.075h.874c.042 0 .075.034.075.075v1.671Zm9.447-3.848a.247.247 0 0 0-.304.172l-2.037 7.41a.247.247 0 0 0 .173.303l.406.111a.247.247 0 0 0 .303-.172l2.037-7.409a.247.247 0 0 0-.172-.304l-.406-.111Zm-1.682 1.108a.247.247 0 0 0-.304.173l-1.736 6.312a.247.247 0 0 0 .173.304l.406.112a.247.247 0 0 0 .303-.173l1.736-6.313a.247.247 0 0 0-.173-.304l-.405-.111Z" clip-rule="evenodd"/>
</svg>
