<svg xmlns="http://www.w3.org/2000/svg" width="24" height="24" fill="none" viewBox="0 0 24 24">
  <path stroke="currentColor" stroke-linejoin="round" stroke-width="1.5" d="M4.75 17v-1.25a1 1 0 0 1 1-1h12.5a1 1 0 0 1 1 1V17m0 0V3.75a1 1 0 0 0-1-1H5.75a1 1 0 0 0-1 1v16.5a1 1 0 0 0 1 1h12.5a1 1 0 0 0 1-1V17Z"/>
  <path fill="currentColor" stroke="currentColor" stroke-linecap="square" stroke-width=".5" d="M15.25 18a.75.75 0 1 0 1.5 0 .75.75 0 0 0-1.5 0Zm-3 0a.75.75 0 1 0 1.5 0 .75.75 0 0 0-1.5 0Z"/>
</svg>
