<svg xmlns="http://www.w3.org/2000/svg" width="24" height="24" fill="none" viewBox="0 0 24 24">
  <path fill="currentColor" d="M13 21a1 1 0 1 0 0-2 1 1 0 0 0 0 2Zm8-10a1 1 0 1 0-2 0 1 1 0 0 0 2 0Zm-1.07 3.268a1 1 0 1 1-1 1.732 1 1 0 0 1 1-1.732Zm-2.562 5.026a1 1 0 1 0-1-1.732 1 1 0 0 0 1 1.732ZM18.927 8a1 1 0 1 1-1-1.732 1 1 0 0 1 1 1.732Z"/>
  <path fill="currentColor" fill-rule="evenodd" d="M12 4.5a7.5 7.5 0 0 0-3.5 14.135V14.75a.75.75 0 0 1 1.5 0v5.5a.75.75 0 0 1-.75.75h-5.5a.75.75 0 0 1 0-1.5h3.274a9 9 0 0 1 8.521-15.775.75.75 0 0 1-.591 1.379A7.473 7.473 0 0 0 12 4.5Z" clip-rule="evenodd"/>
</svg>
