<svg xmlns="http://www.w3.org/2000/svg" width="24" height="24" fill="none" viewBox="0 0 24 24">
  <path fill="currentColor" d="M9.064 7.506a.75.75 0 1 0-1.128.988l1.128-.988Zm7 .988a.75.75 0 1 0-1.128-.988l1.128.988ZM11.25 17.25a.75.75 0 0 0 1.5 0h-1.5Zm-1.5-5a.75.75 0 0 0 0 1.5v-1.5Zm4.5 1.5a.75.75 0 0 0 0-1.5v1.5ZM7.936 8.494l3.5 4 1.128-.988-3.5-4-1.128.988Zm4.628 4 3.5-4-1.128-.988-3.5 4 1.128.988ZM11.25 12v1h1.5v-1h-1.5Zm0 1v4.25h1.5V13h-1.5Zm-1.5.75H12v-1.5H9.75v1.5Zm2.25 0h2.25v-1.5H12v1.5ZM20.5 12a8.5 8.5 0 0 1-8.5 8.5V22c5.523 0 10-4.477 10-10h-1.5ZM12 20.5A8.5 8.5 0 0 1 3.5 12H2c0 5.523 4.477 10 10 10v-1.5ZM3.5 12A8.5 8.5 0 0 1 12 3.5V2C6.477 2 2 6.477 2 12h1.5ZM12 3.5a8.5 8.5 0 0 1 8.5 8.5H22c0-5.523-4.477-10-10-10v1.5Z"/>
</svg>
