<svg xmlns="http://www.w3.org/2000/svg" width="24" height="24" fill="none" viewBox="0 0 24 24">
  <path fill="currentColor" fill-rule="evenodd" d="M4 3.75A.75.75 0 0 1 4.75 3h14.5a.75.75 0 0 1 0 1.5H4.75A.75.75 0 0 1 4 3.75Zm-2 3.5c0-.966.784-1.75 1.75-1.75h16.5c.966 0 1.75.784 1.75 1.75v12A1.75 1.75 0 0 1 20.25 21H3.75A1.75 1.75 0 0 1 2 19.25v-12Zm8.419 2.827a.75.75 0 0 1 .788.079l3.25 2.5a.75.75 0 0 1 0 1.188l-3.25 2.5A.75.75 0 0 1 10 15.75v-5a.75.75 0 0 1 .419-.673Z" clip-rule="evenodd"/>
</svg>
