<svg xmlns="http://www.w3.org/2000/svg" width="24" height="24" fill="none" viewBox="0 0 24 24">
  <path fill="currentColor" d="M12 2a4.5 4.5 0 1 0 0 9 4.5 4.5 0 0 0 0-9Zm4.465 11.798a2.25 2.25 0 0 0-2.056 3.793l.409.409-.409.409A2.251 2.251 0 0 0 13.984 21H5.599c-.999 0-1.908-.888-1.659-1.999C4.77 15.315 8.212 12.5 12 12.5a8.22 8.22 0 0 1 4.465 1.298Z"/>
  <path fill="currentColor" d="M20.53 16.53a.75.75 0 1 0-1.06-1.06L18 16.94l-1.47-1.47a.75.75 0 1 0-1.06 1.06L16.94 18l-1.47 1.47a.75.75 0 1 0 1.06 1.06L18 19.06l1.47 1.47a.75.75 0 1 0 1.06-1.06L19.06 18l1.47-1.47Z"/>
</svg>
