<svg xmlns="http://www.w3.org/2000/svg" width="24" height="24" fill="none" viewBox="0 0 24 24">
  <path fill="currentColor" d="m3.207 15.207.53-.53-.53.53Zm5.586 5.586-.53.53.53-.53Zm12-12-.53.53.53-.53Zm-5.586-5.586-.53.53.53-.53Zm-1.414 0 .53.53-.53-.53ZM10.22 5.72a.75.75 0 0 0 1.06 1.06l-1.06-1.06Zm-3.44 5.56a.75.75 0 0 0-1.06-1.06l1.06 1.06Zm-3.573 2.513.53.53-.53-.53ZM17.22 12.72a.75.75 0 0 0 1.06 1.06l-1.06-1.06Zm3.573-2.513.53.53-.53-.53ZM10.207 20.793l-.53-.53.53.53Zm3.573-2.513a.75.75 0 0 0-1.06-1.06l1.06 1.06Zm-5.31-3.81a.75.75 0 0 0 1.06 1.06l-1.06-1.06Zm7.06-4.94a.75.75 0 1 0-1.06-1.06l1.06 1.06ZM2.677 15.737l5.586 5.586 1.06-1.06-5.586-5.586-1.06 1.06Zm18.646-7.475-5.586-5.585-1.06 1.06 5.585 5.586 1.061-1.06Zm-8.06-5.585L10.22 5.72l1.06 1.06 3.043-3.043-1.06-1.06ZM5.72 10.22l-3.043 3.042 1.06 1.061L6.78 11.28l-1.06-1.06Zm12.56 3.56 3.043-3.043-1.06-1.06-3.043 3.043 1.06 1.06Zm-7.543 7.543 3.043-3.043-1.06-1.06-3.043 3.042 1.06 1.061Zm9.525-12a.25.25 0 0 1 0 .354l1.061 1.06a1.75 1.75 0 0 0 0-2.475l-1.06 1.061Zm-12 12a1.75 1.75 0 0 0 2.475 0l-1.06-1.06a.25.25 0 0 1-.354 0l-1.06 1.06Zm-4.525-6.646a.25.25 0 0 1 0-.354l-1.06-1.06a1.75 1.75 0 0 0 0 2.474l1.06-1.06Zm12-12a1.75 1.75 0 0 0-2.475 0l1.061 1.06a.25.25 0 0 1 .354 0l1.06-1.06ZM9.53 15.53l6-6-1.06-1.06-6 6 1.06 1.06Z"/>
</svg>
