<svg xmlns="http://www.w3.org/2000/svg" width="24" height="24" fill="none" viewBox="0 0 24 24">
  <path stroke="currentColor" stroke-linecap="round" stroke-linejoin="round" stroke-width="1.5" d="M4.26 10.147a60.441 60.441 0 0 0-.49 6.347 48.619 48.619 0 0 1 8.23 4.41 48.622 48.622 0 0 1 8.232-4.41 60.466 60.466 0 0 0-.49-6.347m0 0a51.41 51.41 0 0 1 2.657-.814A59.909 59.909 0 0 0 12 3.493a59.905 59.905 0 0 0-10.399 5.84 50.656 50.656 0 0 1 10.4 4.156 50.716 50.716 0 0 1 7.74-3.342ZM6.75 15a.75.75 0 1 0 0-1.5.75.75 0 0 0 0 1.5Zm0 0v-3.675A55.393 55.393 0 0 1 12 8.443m-7.007 11.55A5.981 5.981 0 0 0 6.75 15.75v-1.5"/>
</svg>
