<svg xmlns="http://www.w3.org/2000/svg" width="24" height="24" fill="none" viewBox="0 0 24 24">
  <path fill="currentColor" d="M7.252 7.75a.75.75 0 1 0 1.5 0h-1.5Zm8 0a.75.75 0 0 0 1.5 0h-1.5Zm1.498-.5V6.5h-1.5v.75h1.5Zm-1.5 13V21h1.5v-.75h-1.5Zm-6.5-13V6.5h-1.5v.75h1.5Zm-1.5 13V21h1.5v-.75h-1.5Zm13-.75H3.75V21h16.5v-1.5Zm-16.5-11h16.5V7H3.75v1.5Zm16.75.25v10.5H22V8.75h-1.5Zm-17 10.5V8.75H2v10.5h1.5ZM20.25 8.5a.25.25 0 0 1 .25.25H22A1.75 1.75 0 0 0 20.25 7v1.5ZM3.75 7A1.75 1.75 0 0 0 2 8.75h1.5a.25.25 0 0 1 .25-.25V7Zm0 12.5a.25.25 0 0 1-.25-.25H2c0 .966.784 1.75 1.75 1.75v-1.5Zm16.5 1.5A1.75 1.75 0 0 0 22 19.25h-1.5a.25.25 0 0 1-.25.25V21ZM8.752 7.75v-3h-1.5v3h1.5Zm.25-3.25h6V3h-6v1.5Zm6.25.25v3h1.5v-3h-1.5Zm-.25-.25a.25.25 0 0 1 .25.25h1.5A1.75 1.75 0 0 0 15.002 3v1.5Zm-6.25.25a.25.25 0 0 1 .25-.25V3a1.75 1.75 0 0 0-1.75 1.75h1.5Zm6.498 2.5v13h1.5v-13h-1.5Zm-8 0v13h1.5v-13h-1.5Z"/>
</svg>
