<svg xmlns="http://www.w3.org/2000/svg" width="24" height="24" fill="none" viewBox="0 0 24 24">
  <path fill="currentColor" d="M9.25 9.25V10H10v-.75h-.75Zm-5.5 0H3h.75Zm0-5.5V3a.75.75 0 0 0-.75.75h.75Zm5.5.5H8.5h.75Zm-.5-.5V3v.75Zm6 11v.75h.75v-.75h-.75Zm0-5H14h.75Zm-.5-.5V10v-.75Zm-10.5 11H3c0 .414.336.75.75.75v-.75Zm16.5-.5H21h-.75Zm-.5.5v-.75.75Zm.5-5h-.75.75Zm-.5-.5V14v.75ZM4.5 1.75a.75.75 0 0 0-1.5 0h1.5ZM3 22.25a.75.75 0 0 0 1.5 0H3Zm5.5-18v5H10v-5H8.5Zm.75 4.25h-5.5V10h5.5V8.5Zm-4.75.75v-5.5H3v5.5h1.5ZM3.75 4.5h5V3h-5v1.5ZM10 4.25C10 3.56 9.44 3 8.75 3v1.5a.25.25 0 0 1-.25-.25H10Zm4 5.5v5h1.5v-5H14Zm.75 4.25h-11v1.5h11V14Zm-10.25.75v-5.5H3v5.5h1.5ZM3.75 10h10.5V8.5H3.75V10Zm11.75-.25c0-.69-.56-1.25-1.25-1.25V10a.25.25 0 0 1-.25-.25h1.5Zm4 5.5v4.5H21v-4.5h-1.5Zm.25 4.25h-16V21h16v-1.5Zm-15.25.75v-5.5H3v5.5h1.5Zm-.75-4.75h16V14h-16v1.5Zm15.75 4.25a.25.25 0 0 1 .25-.25V21c.69 0 1.25-.56 1.25-1.25h-1.5Zm1.5-4.5c0-.69-.56-1.25-1.25-1.25v1.5a.25.25 0 0 1-.25-.25H21ZM3 1.75v20.5h1.5V1.75H3Z"/>
</svg>
