<svg xmlns="http://www.w3.org/2000/svg" width="24" height="24" fill="none" viewBox="0 0 24 24">
  <path fill="currentColor" d="M9.75 17.25v-.75a.75.75 0 0 0-.75.75h.75Zm4.5 0H15a.75.75 0 0 0-.75-.75v.75Zm0 4V22a.75.75 0 0 0 .75-.75h-.75Zm-4.5 0H9c0 .414.336.75.75.75v-.75Zm-7-8.75H2V14h.75v-1.5Zm7 5.5h4.5v-1.5h-4.5V18Zm3.75-.75v4H15v-4h-1.5Zm.75 3.25h-4.5V22h4.5v-1.5Zm-3.75.75v-4H9v4h1.5Zm10.75-8.75H2.75V14h18.5v-1.5Zm-17.5-8h16.5V3H3.75v1.5Zm16.75.25v11.5H22V4.75h-1.5Zm-.25 11.75H3.75V18h16.5v-1.5ZM3.5 16.25V4.75H2v11.5h1.5Zm.25.25a.25.25 0 0 1-.25-.25H2c0 .966.784 1.75 1.75 1.75v-1.5Zm16.75-.25a.25.25 0 0 1-.25.25V18A1.75 1.75 0 0 0 22 16.25h-1.5ZM20.25 4.5a.25.25 0 0 1 .25.25H22A1.75 1.75 0 0 0 20.25 3v1.5ZM3.75 3A1.75 1.75 0 0 0 2 4.75h1.5a.25.25 0 0 1 .25-.25V3Z"/>
</svg>
