<svg xmlns="http://www.w3.org/2000/svg" width="24" height="24" fill="none" viewBox="0 0 24 24">
  <path fill="currentColor" fill-rule="evenodd" d="M5.75 2A1.75 1.75 0 0 0 4 3.75v16.5c0 .966.784 1.75 1.75 1.75h12.5A1.75 1.75 0 0 0 20 20.25V3.75A1.75 1.75 0 0 0 18.25 2H5.75ZM18.5 7V3.75a.25.25 0 0 0-.25-.25H5.75a.25.25 0 0 0-.25.25V7h13Zm-9 6.25a1 1 0 1 0 0-2 1 1 0 0 0 0 2Zm0 4.5a1 1 0 1 0 0-2 1 1 0 0 0 0 2Zm6-5.5a1 1 0 1 1-2 0 1 1 0 0 1 2 0Zm-1 5.5a1 1 0 1 0 0-2 1 1 0 0 0 0 2Z" clip-rule="evenodd"/>
</svg>
