<svg xmlns="http://www.w3.org/2000/svg" width="24" height="24" fill="none" viewBox="0 0 24 24">
  <path fill="currentColor" d="M20.25 7.75H21a.75.75 0 0 0-.75-.75v.75Zm-16.5 0V7a.75.75 0 0 0-.75.75h.75Zm.546 12.391.34-.668-.34.668Zm-.437-.437-.668.34.668-.34Zm16.282 0-.668-.34.668.34Zm-.437.437-.34-.668.34.668ZM2.75 3.75V3a.75.75 0 0 0-.75.75h.75Zm18.5 0H22a.75.75 0 0 0-.75-.75v.75Zm0 4v.75a.75.75 0 0 0 .75-.75h-.75Zm-18.5 0H2c0 .414.336.75.75.75v-.75ZM10 11a.75.75 0 0 0 0 1.5V11Zm4 1.5a.75.75 0 0 0 0-1.5v1.5Zm5.5-4.75v10.9H21V7.75h-1.5Zm-.85 11.75H5.35V21h13.3v-1.5ZM4.5 18.65V7.75H3v10.9h1.5ZM3.75 8.5h16.5V7H3.75v1.5Zm1.6 11c-.292 0-.467 0-.596-.011-.12-.01-.134-.025-.117-.016l-.681 1.336c.23.118.463.157.676.175.205.017.45.016.718.016v-1.5ZM3 18.65c0 .268 0 .514.016.718.018.213.057.446.175.677l1.336-.682c.009.017-.006.003-.016-.117a8.337 8.337 0 0 1-.011-.596H3Zm1.636.823a.25.25 0 0 1-.109-.11l-1.336.681c.168.33.435.598.765.765l.68-1.336ZM19.5 18.65c0 .292 0 .467-.011.596-.01.12-.025.134-.016.117l1.336.681a1.77 1.77 0 0 0 .175-.676c.017-.204.016-.45.016-.718h-1.5ZM18.65 21c.268 0 .514 0 .718-.016a1.78 1.78 0 0 0 .677-.175l-.682-1.336c.017-.009.003.006-.117.016-.13.01-.304.011-.596.011V21Zm.823-1.637a.251.251 0 0 1-.11.11l.681 1.336a1.75 1.75 0 0 0 .765-.765l-1.336-.68ZM2.75 4.5h18.5V3H2.75v1.5Zm17.75-.75v4H22v-4h-1.5ZM21.25 7H2.75v1.5h18.5V7ZM3.5 7.75v-4H2v4h1.5ZM10 12.5h4V11h-4v1.5Z"/>
</svg>
