<svg xmlns="http://www.w3.org/2000/svg" width="24" height="25" fill="none" viewBox="0 0 24 25">
  <path fill="currentColor" d="m16.458 9.913.34.204a.42.42 0 0 0-.142-.557l-.198.353Zm-4.61 2.631-.186.36a.377.377 0 0 0 .373 0l-.187-.36Zm-4.674-2.63-.196-.355a.413.413 0 0 0-.195.36.41.41 0 0 0 .205.354l.186-.36Zm4.674-2.824.198-.353a.377.377 0 0 0-.394-.002l.196.355Zm0 11.23-.202.35a.377.377 0 0 0 .402.001l-.2-.351Zm-4.674-2.952-.337-.208a.42.42 0 0 0 .135.558l.202-.35Zm9.22.128.2.352a.413.413 0 0 0 .191-.353.412.412 0 0 0-.193-.351l-.198.352ZM7.455 3.568h9.003V2.75H7.455v.818Zm9.003 0c2.598 0 4.672 2.097 4.672 4.645h.783a5.459 5.459 0 0 0-5.455-5.463v.818Zm4.672 4.645v8.984h.783V8.213h-.783Zm0 8.984c0 2.547-2.074 4.644-4.672 4.644v.818a5.459 5.459 0 0 0 5.455-5.462h-.783Zm-4.672 4.644H7.455v.818h9.003v-.818Zm-9.003 0c-2.598 0-4.672-2.097-4.672-4.644H2a5.459 5.459 0 0 0 5.455 5.462v-.818Zm-4.672-4.644V8.213H2v8.984h.783Zm0-8.984c0-2.548 2.074-4.645 4.672-4.645V2.75A5.459 5.459 0 0 0 2 8.213h.783ZM16.27 9.554l-4.61 2.631.375.718 4.61-2.63-.375-.719Zm-8.9.713 4.674-2.823-.392-.709L6.978 9.56l.392.708Zm4.28-2.824 4.61 2.823.396-.706-4.61-2.823-.396.706Zm.4 10.526-4.674-2.952-.404.7 4.674 2.953.404-.7Zm-.017-5.785-2.337-1.316-.37.72 2.336 1.316.371-.72Zm-2.337-1.316L7.36 9.553l-.37.72 2.336 1.316.371-.72Zm-2.185 4.708 2.337-4.14-.674-.415-2.337 4.139.674.416Zm4.537 3.095 4.546-2.823-.4-.704-4.546 2.824.4.703Zm4.07-8.961-2.305 4.203.68.407 2.304-4.203-.679-.407Zm-2.305 4.203-2.305 4.203.68.407 2.304-4.203-.679-.407Zm2.78 1.23-2.242-1.38-.397.706 2.241 1.38.397-.706Z"/>
</svg>
