<svg xmlns="http://www.w3.org/2000/svg" width="24" height="24" fill="none" viewBox="0 0 24 24">
  <path fill="currentColor" fill-rule="evenodd" d="M5.574 3.25H9.5a.75.75 0 1 1 0 1.5H5.6c-.292 0-.467 0-.596.011a.626.626 0 0 0-.12.018.25.25 0 0 0-.105.104.626.626 0 0 0-.018.121c-.01.13-.011.304-.011.596v13.3c0 .292 0 .467.011.596a.625.625 0 0 0 .018.12.25.25 0 0 0 .104.105.638.638 0 0 0 .121.018c.13.01.304.011.596.011h13.3c.292 0 .467 0 .596-.011a.636.636 0 0 0 .12-.018.25.25 0 0 0 .105-.105.636.636 0 0 0 .018-.12c.01-.13.011-.304.011-.596V15a.75.75 0 0 1 1.5 0v3.926c0 .258 0 .494-.016.692a1.775 1.775 0 0 1-.175.677 1.75 1.75 0 0 1-.765.764 1.77 1.77 0 0 1-.676.175c-.198.016-.434.016-.692.016H5.574c-.258 0-.494 0-.692-.016a1.775 1.775 0 0 1-.676-.175 1.75 1.75 0 0 1-.765-.765 1.774 1.774 0 0 1-.175-.676 9.053 9.053 0 0 1-.016-.692V5.574c0-.258 0-.494.016-.692a1.77 1.77 0 0 1 .175-.676 1.75 1.75 0 0 1 .765-.765 1.77 1.77 0 0 1 .676-.175c.198-.016.434-.016.692-.016Zm14.045 16.47h-.001.001Zm-14.738 0h.001-.001Zm-.101-.1v-.002.001Zm0-14.74v.002-.001Zm.102-.1h-.001.001ZM13.25 4a.75.75 0 0 1 .75-.75h6.5a.75.75 0 0 1 .75.75v6.5a.75.75 0 0 1-1.5 0V5.81l-7.97 7.97a.75.75 0 1 1-1.06-1.06l7.97-7.97H14a.75.75 0 0 1-.75-.75Z" clip-rule="evenodd"/>
</svg>
