<svg xmlns="http://www.w3.org/2000/svg" width="24" height="24" fill="none" viewBox="0 0 24 24">
  <path fill="currentColor" d="m6.246 7.592-.404-.631.404.631ZM12.25 3.75H13a.75.75 0 0 0-1.154-.632l.404.632Zm0 16.5-.404.632A.75.75 0 0 0 13 20.25h-.75Zm-6.004-3.842.405-.632-.405.632ZM22.03 10.53a.75.75 0 1 0-1.06-1.06l1.06 1.06Zm-5.303 3.182a.75.75 0 0 0 1.06 1.061l-1.06-1.06Zm1.06-4.242a.75.75 0 0 0-1.06 1.06l1.06-1.06Zm3.183 5.303a.75.75 0 1 0 1.06-1.06l-1.06 1.06ZM2.75 8.5h2.957V7H2.75v1.5Zm3.9-.276 6.004-3.842-.808-1.264-6.004 3.843.809 1.263ZM11.5 3.75v16.5H13V3.75h-1.5Zm1.154 15.868-6.003-3.842-.809 1.263 6.004 3.843.808-1.264ZM5.707 15.5H2.75V17h2.957v-1.5ZM2.5 15.25v-6.5H1v6.5h1.5Zm4.15.526a1.75 1.75 0 0 0-.943-.276V17a.25.25 0 0 1 .135.04l.809-1.264ZM5.708 8.5c.335 0 .662-.096.944-.276l-.809-1.263A.25.25 0 0 1 5.707 7v1.5Zm-2.957 7a.25.25 0 0 1-.25-.25H1c0 .966.784 1.75 1.75 1.75v-1.5Zm0-8.5A1.75 1.75 0 0 0 1 8.75h1.5a.25.25 0 0 1 .25-.25V7Zm18.22 2.47-2.122 2.121 1.061 1.06 2.121-2.12-1.06-1.061Zm-2.122 2.121-2.121 2.121 1.06 1.061 2.122-2.121-1.06-1.061Zm-2.121-1.06 2.121 2.12 1.061-1.06-2.121-2.121-1.061 1.06Zm2.121 2.12 2.122 2.122 1.06-1.06-2.121-2.122-1.06 1.06Z"/>
</svg>
