<svg xmlns="http://www.w3.org/2000/svg" width="24" height="24" fill="none" viewBox="0 0 24 24">
  <path fill="currentColor" fill-rule="evenodd" d="M1 3.75C1 2.784 1.784 2 2.75 2h18.5c.966 0 1.75.784 1.75 1.75v10.5A1.75 1.75 0 0 1 21.25 16H2.75A1.75 1.75 0 0 1 1 14.25V3.75Zm8.75 6.75a.75.75 0 0 0 0 1.5h4.5a.75.75 0 0 0 0-1.5h-4.5Zm-4-2.75a1 1 0 1 0 0-2 1 1 0 0 0 0 2Zm0 4.5a1 1 0 1 0 0-2 1 1 0 0 0 0 2Zm13.5-5.5a1 1 0 1 1-2 0 1 1 0 0 1 2 0Zm-1 5.5a1 1 0 1 0 0-2 1 1 0 0 0 0 2Zm-7.5-5.5a1 1 0 1 1-2 0 1 1 0 0 1 2 0Zm3.5 1a1 1 0 1 0 0-2 1 1 0 0 0 0 2Z" clip-rule="evenodd"/>
  <path fill="currentColor" d="M10.53 18.47a.75.75 0 1 0-1.06 1.06l2 2a.75.75 0 0 0 1.06 0l2-2a.75.75 0 1 0-1.06-1.06L12 19.94l-1.47-1.47Z"/>
</svg>
