<svg xmlns="http://www.w3.org/2000/svg" width="24" height="24" fill="none" viewBox="0 0 24 24">
  <path fill="currentColor" d="M11.13 2.32a1.773 1.773 0 0 1 1.74 0l7.25 4.08c.05.028.099.059.146.092L12 11.14 3.735 6.49c.046-.032.095-.063.146-.091l7.25-4.078ZM2.983 7.789a1.778 1.778 0 0 0-.006.155v8.112c0 .64.345 1.232.904 1.546l7.25 4.078c.039.022.079.042.12.061V12.44L2.983 7.79ZM12.75 21.74c.04-.018.08-.038.12-.06l7.25-4.078c.558-.314.903-.905.903-1.546V7.944c0-.052-.002-.104-.006-.155l-8.266 4.65v9.302Z"/>
</svg>
