<svg xmlns="http://www.w3.org/2000/svg" width="24" height="24" fill="none" viewBox="0 0 24 24">
  <path fill="currentColor" d="M18.386 12c2.311-3.245 3.49-6.598 1.851-8.237-1.639-1.639-4.992-.46-8.237 1.85-3.245-2.31-6.598-3.489-8.237-1.85-1.639 1.639-.46 4.992 1.85 8.237-2.31 3.245-3.489 6.598-1.85 8.237.528.528 1.233.763 2.054.763 1.732 0 3.983-1.047 6.188-2.614C14.2 19.953 16.45 21 18.188 21c.82 0 1.527-.236 2.054-.763 1.634-1.639.455-4.992-1.856-8.237Zm.79-7.176c.717.716.233 3.037-1.736 5.932a28.16 28.16 0 0 0-1.986-2.21 28.373 28.373 0 0 0-2.21-1.983c2.895-1.97 5.216-2.456 5.933-1.74Zm-14.352 0c.206-.208.546-.315.995-.315 1.108 0 2.877.647 4.936 2.054a28.497 28.497 0 0 0-2.209 1.983c-.7.702-1.361 1.44-1.983 2.21-1.97-2.895-2.456-5.216-1.74-5.932Zm0 14.353c-.717-.717-.23-3.038 1.739-5.933a28.161 28.161 0 0 0 4.193 4.194c-2.895 1.968-5.216 2.455-5.932 1.739ZM12 13.125a1.125 1.125 0 1 1 0-2.25 1.125 1.125 0 0 1 0 2.25Zm7.177 6.053c-.717.717-3.038.232-5.933-1.737a28.546 28.546 0 0 0 2.21-1.986c.7-.702 1.362-1.44 1.984-2.21 1.968 2.894 2.455 5.215 1.739 5.932Z"/>
</svg>
