<svg xmlns="http://www.w3.org/2000/svg" width="24" height="24" fill="none" viewBox="0 0 24 24">
  <path fill="currentColor" d="M11.7 2.805a.75.75 0 0 1 .6 0A60.646 60.646 0 0 1 22.83 8.72a.75.75 0 0 1-.231 1.337 49.953 49.953 0 0 0-9.902 3.912l-.003.002c-.114.06-.227.119-.34.18a.749.749 0 0 1-.707 0A50.903 50.903 0 0 0 7.5 12.173v-.224a.36.36 0 0 1 .172-.311 54.638 54.638 0 0 1 4.653-2.52.75.75 0 0 0-.65-1.352 56.137 56.137 0 0 0-4.78 2.589 1.86 1.86 0 0 0-.86 1.228 49.808 49.808 0 0 0-4.633-1.527.75.75 0 0 1-.231-1.337A60.654 60.654 0 0 1 11.7 2.805Z"/>
  <path fill="currentColor" d="M13.06 15.473a48.464 48.464 0 0 1 7.666-3.282c.134 1.414.22 2.843.255 4.284a.75.75 0 0 1-.46.71 47.881 47.881 0 0 0-8.105 4.343.75.75 0 0 1-.832 0 47.878 47.878 0 0 0-8.104-4.342.75.75 0 0 1-.461-.71c.035-1.442.121-2.87.255-4.286.921.304 1.83.634 2.726.99v1.27a1.5 1.5 0 0 0-.14 2.508c-.09.38-.222.753-.397 1.11.452.213.901.434 1.346.66.25-.51.436-1.05.551-1.607a1.5 1.5 0 0 0 .14-2.67v-.645a48.555 48.555 0 0 1 3.44 1.667 2.25 2.25 0 0 0 2.12 0Z"/>
  <path fill="currentColor" d="M4.462 19.462a5.2 5.2 0 0 0 1-1.395c.453.214.902.435 1.347.662a6.742 6.742 0 0 1-1.286 1.794.75.75 0 0 1-1.06-1.06l-.001-.001Z"/>
</svg>
