<svg xmlns="http://www.w3.org/2000/svg" width="24" height="24" fill="none" viewBox="0 0 24 24">
  <path stroke="currentColor" stroke-linecap="round" stroke-linejoin="round" stroke-width="1.5" d="M7.754 9.218a15.888 15.888 0 0 0 2.954 4.074 15.889 15.889 0 0 0 4.074 2.954l1.79-1.791a.5.5 0 0 1 .61-.076l3.517 2.098a.5.5 0 0 1 .097.782l-3.583 3.583a.97.97 0 0 1-.963.251 19.741 19.741 0 0 1-4.396-1.92 19.912 19.912 0 0 1-3.957-3.07 19.914 19.914 0 0 1-3.07-3.957 19.746 19.746 0 0 1-1.92-4.396.971.971 0 0 1 .25-.963l3.584-3.583a.5.5 0 0 1 .782.097l2.098 3.516a.5.5 0 0 1-.076.61l-1.79 1.79Z"/>
</svg>
