<svg xmlns="http://www.w3.org/2000/svg" width="24" height="24" fill="none" viewBox="0 0 24 24">
  <path fill="currentColor" d="M4.124 8.5a.5.5 0 0 0-.496.564l1.463 11.409A1.75 1.75 0 0 0 6.827 22H8.69L7.896 8.5H4.124Zm5.275 0 .794 13.5h3.615l.794-13.5H9.399Zm6.705 0L15.31 22h1.864a1.75 1.75 0 0 0 1.735-1.527l1.463-11.41a.5.5 0 0 0-.496-.563h-3.772ZM20.285 7a2.297 2.297 0 0 0-1.313-1.388l-.048-.02a2.315 2.315 0 0 1-.751-.49 2.263 2.263 0 0 1-.501-.736l-.02-.048a2.278 2.278 0 0 0-.98-1.094c-.44-.25-.953-.35-1.457-.285l-.057.008a2.364 2.364 0 0 1-1.712-.45l-.039-.029A2.342 2.342 0 0 0 12 2a2.34 2.34 0 0 0-1.407.468l-.043.033a2.33 2.33 0 0 1-1.708.448l-.058-.007a2.35 2.35 0 0 0-1.457.284c-.44.25-.785.635-.979 1.095l-.02.046a2.259 2.259 0 0 1-.5.737c-.216.21-.471.377-.752.49l-.048.02A2.296 2.296 0 0 0 3.715 7h16.57Z"/>
</svg>
