<svg xmlns="http://www.w3.org/2000/svg" width="24" height="24" fill="none" viewBox="0 0 24 24">
  <path fill="currentColor" fill-rule="evenodd" d="M12 3c3.101 0 5.727.805 7.591 2.366C21.471 6.941 22.5 9.223 22.5 12s-1.03 5.059-2.909 6.634C17.727 20.194 15.101 21 12 21c-1.693 0-3.57-.162-5.234-.922a6.967 6.967 0 0 1-1.223.568c-.941.328-2.282.548-3.615-.086a.75.75 0 0 1-.277-1.129c1.443-1.912 1.015-3.08.997-3.13l-.006-.014-.008-.019-.012-.028a22.19 22.19 0 0 1-.608-1.665c-.25-.782-.514-1.78-.514-2.575 0-2.777 1.03-5.059 2.909-6.634C6.273 3.806 8.899 3 12 3Zm-5.5 9a1 1 0 1 0 2 0 1 1 0 0 0-2 0Zm4.5 0a1 1 0 1 0 2 0 1 1 0 0 0-2 0Zm5.5 1a1 1 0 1 1 0-2 1 1 0 0 1 0 2Z" clip-rule="evenodd"/>
</svg>
