<svg xmlns="http://www.w3.org/2000/svg" width="24" height="24" fill="none" viewBox="0 0 24 24">
  <path fill="currentColor" d="M12 8.25a3.75 3.75 0 1 0 0 7.5 3.75 3.75 0 0 0 0-7.5Zm0 6a2.25 2.25 0 1 1 0-4.5 2.25 2.25 0 0 1 0 4.5Zm6.91.67A7.498 7.498 0 0 1 17.59 17a.75.75 0 0 1-1.117-1 5.995 5.995 0 0 0 0-8 .751.751 0 1 1 1.117-1 7.508 7.508 0 0 1 1.32 7.92ZM6.47 9.664A6 6 0 0 0 7.524 16a.75.75 0 0 1-1.117 1 7.493 7.493 0 0 1 0-10 .751.751 0 0 1 1.12 1A5.978 5.978 0 0 0 6.47 9.666ZM23.25 12a11.21 11.21 0 0 1-3.215 7.875.75.75 0 1 1-1.07-1.05 9.74 9.74 0 0 0 0-13.646.75.75 0 1 1 1.07-1.054A11.21 11.21 0 0 1 23.25 12ZM5.035 18.823a.75.75 0 1 1-1.07 1.052 11.238 11.238 0 0 1 0-15.75.75.75 0 1 1 1.07 1.05 9.74 9.74 0 0 0 0 13.646v.002Z"/>
</svg>
