<svg xmlns="http://www.w3.org/2000/svg" width="24" height="24" fill="none" viewBox="0 0 24 24">
  <path fill="currentColor" fill-rule="evenodd" d="M2 12C2 6.477 6.477 2 12 2c.39 0 .775.022 1.153.066a.75.75 0 0 1 .65.892 2.75 2.75 0 0 0 2.327 3.268.75.75 0 0 1 .645.643 2.75 2.75 0 0 0 3.87 2.132.75.75 0 0 1 1.039.495c.206.8.316 1.64.316 2.504 0 5.523-4.477 10-10 10S2 17.523 2 12Zm8-3.5a1.5 1.5 0 1 1-3 0 1.5 1.5 0 0 1 3 0Zm4 3a1.5 1.5 0 1 1-3 0 1.5 1.5 0 0 1 3 0Zm3 3.5a1 1 0 1 0 0-2 1 1 0 0 0 0 2Zm-4 1.5a1.5 1.5 0 1 1-3 0 1.5 1.5 0 0 1 3 0ZM7 15a1 1 0 1 0 0-2 1 1 0 0 0 0 2Z" clip-rule="evenodd"/>
</svg>
