<svg xmlns="http://www.w3.org/2000/svg" width="24" height="24" fill="none" viewBox="0 0 24 24">
  <path fill="currentColor" d="M9.25 14.75H10a.75.75 0 0 0-.75-.75v.75Zm-5.5 5.5H3V21h.75v-.75Zm11-11h.75a.75.75 0 0 0-.75-.75v.75Zm5.5 11V21H21v-.75h-.75Zm-18.5-.75a.75.75 0 0 0 0 1.5v-1.5Zm20.5 1.5a.75.75 0 0 0 0-1.5V21Zm-18-5.5h5V14h-5v1.5Zm4.25-.75v5.5H10v-5.5H8.5Zm.75 4.75h-5.5V21h5.5v-1.5Zm-4.75.75v-5H3v5h1.5ZM4.25 14C3.56 14 3 14.56 3 15.25h1.5a.25.25 0 0 1-.25.25V14Zm5.5-4h5V8.5h-5V10ZM14 9.25v11h1.5v-11H14Zm.75 10.25h-5.5V21h5.5v-1.5Zm-4.75.75V9.75H8.5v10.5H10ZM9.75 8.5c-.69 0-1.25.56-1.25 1.25H10a.25.25 0 0 1-.25.25V8.5Zm5.5-4h4.5V3h-4.5v1.5Zm4.25-.25v16H21v-16h-1.5Zm.75 15.25h-5.5V21h5.5v-1.5Zm-4.75.75v-16H14v16h1.5ZM19.75 4.5a.25.25 0 0 1-.25-.25H21C21 3.56 20.44 3 19.75 3v1.5ZM15.25 3C14.56 3 14 3.56 14 4.25h1.5a.25.25 0 0 1-.25.25V3ZM1.75 21h20.5v-1.5H1.75V21Z"/>
</svg>
