<svg xmlns="http://www.w3.org/2000/svg" width="24" height="24" fill="none" viewBox="0 0 24 24">
  <path fill="currentColor" d="M11.47 2.225a.75.75 0 0 1 1.06 0l2.5 2.5a.75.75 0 0 1-1.06 1.06l-1.22-1.22V8.25a.75.75 0 0 1-1.5 0V4.566l-1.22 1.22a.75.75 0 1 1-1.06-1.061l2.5-2.5ZM2.004 20.25a.75.75 0 0 1 .75-.75h18.5a.75.75 0 0 1 0 1.5h-18.5a.75.75 0 0 1-.75-.75Zm.746-4.75a.75.75 0 0 0 0 1.5h1.5a.75.75 0 0 0 0-1.5h-1.5Zm17 0a.75.75 0 0 0 0 1.5h1.5a.75.75 0 0 0 0-1.5h-1.5Zm-3.5 1.5a.75.75 0 0 0 .75-.75V16a5 5 0 0 0-10 0v.25c0 .414.336.75.75.75h8.5Z"/>
  <path fill="currentColor" fill-rule="evenodd" d="M17.363 11.5a.75.75 0 0 1 .092-1.056l1.15-.964a.75.75 0 1 1 .964 1.149l-1.15.964a.75.75 0 0 1-1.056-.093ZM4.34 9.572a.75.75 0 0 1 1.056-.092l1.15.964a.75.75 0 0 1-.965 1.149l-1.149-.964a.75.75 0 0 1-.092-1.057Z" clip-rule="evenodd"/>
</svg>
