<svg xmlns="http://www.w3.org/2000/svg" width="24" height="24" fill="none" viewBox="0 0 24 24">
  <path fill="currentColor" d="M10.75 5.75a.75.75 0 0 0-1.5 0v1.5a.75.75 0 0 0 1.5 0v-1.5ZM14 5a.75.75 0 0 1 .75.75v1.5a.75.75 0 0 1-1.5 0v-1.5A.75.75 0 0 1 14 5Z"/>
  <path fill="currentColor" fill-rule="evenodd" d="M5.75 2a.75.75 0 0 0-.75.75V9.5H3.75a.75.75 0 0 0-.75.75v10c0 .966.784 1.75 1.75 1.75h14.5A1.75 1.75 0 0 0 21 20.25v-10a.75.75 0 0 0-.75-.75H19V2.75a.75.75 0 0 0-.75-.75H5.75ZM17.5 9.5v-6h-11v6h11Z" clip-rule="evenodd"/>
</svg>
