<svg xmlns="http://www.w3.org/2000/svg" width="24" height="24" fill="none" viewBox="0 0 24 24">
  <path fill="currentColor" d="M21.951 11.623c0-1.325-1.659-2.58-4.203-3.359.587-2.593.326-4.655-.823-5.316a1.787 1.787 0 0 0-.913-.228v.909c.187 0 .338.037.464.106.555.318.795 1.529.608 3.086-.045.383-.118.787-.208 1.199a19.754 19.754 0 0 0-2.589-.445 19.88 19.88 0 0 0-1.696-2.038c1.33-1.235 2.577-1.912 3.425-1.912v-.91c-1.121 0-2.589.8-4.073 2.186-1.484-1.378-2.951-2.169-4.072-2.169v.91c.843 0 2.095.672 3.424 1.899-.57.6-1.142 1.28-1.684 2.034-.921.098-1.793.249-2.592.449a12.3 12.3 0 0 1-.212-1.183c-.192-1.557.044-2.768.595-3.09a.907.907 0 0 1 .469-.106v-.909c-.343 0-.653.074-.922.228-1.145.66-1.402 2.72-.811 5.304-2.536.783-4.187 2.034-4.187 3.355 0 1.325 1.66 2.58 4.203 3.36-.587 2.592-.326 4.655.824 5.315.265.155.575.229.917.229 1.121 0 2.589-.8 4.073-2.185 1.483 1.378 2.951 2.168 4.072 2.168.343 0 .652-.073.922-.228 1.145-.66 1.402-2.72.81-5.304 2.528-.778 4.18-2.034 4.18-3.355Zm-5.308-2.719c-.15.526-.338 1.068-.55 1.61a22.085 22.085 0 0 0-1.121-1.932 18.6 18.6 0 0 1 1.671.322Zm-1.867 4.342c-.318.55-.644 1.072-.982 1.557a21.21 21.21 0 0 1-3.677.004 21.22 21.22 0 0 1-1.834-3.172 21.707 21.707 0 0 1 1.826-3.184 21.212 21.212 0 0 1 3.677-.003 21.221 21.221 0 0 1 1.835 3.172 22.84 22.84 0 0 1-.845 1.626Zm1.317-.53c.22.546.408 1.092.563 1.622-.534.13-1.097.24-1.68.327a22.557 22.557 0 0 0 1.117-1.95Zm-4.134 4.35a16.946 16.946 0 0 1-1.133-1.305c.367.016.742.029 1.121.029.383 0 .763-.008 1.134-.029-.367.477-.746.913-1.122 1.305Zm-3.033-2.401a18.41 18.41 0 0 1-1.671-.323c.15-.526.338-1.068.55-1.61.167.326.343.652.534.979a27 27 0 0 0 .587.954ZM11.94 6.18c.38.391.758.828 1.133 1.304a25.233 25.233 0 0 0-1.12-.028c-.384 0-.763.008-1.134.028.367-.476.746-.913 1.121-1.304ZM8.922 8.582a22.53 22.53 0 0 0-1.117 1.945 17.476 17.476 0 0 1-.562-1.623 19.8 19.8 0 0 1 1.68-.322Zm-3.689 5.104c-1.443-.616-2.377-1.423-2.377-2.063 0-.64.934-1.451 2.377-2.063.35-.15.734-.285 1.13-.411.232.799.537 1.63.916 2.482a19.304 19.304 0 0 0-.905 2.47 12.402 12.402 0 0 1-1.141-.415Zm2.193 5.826c-.554-.318-.795-1.53-.607-3.086.045-.384.118-.787.208-1.199.799.196 1.671.346 2.588.444.55.755 1.121 1.44 1.696 2.039-1.329 1.235-2.576 1.912-3.424 1.912a.973.973 0 0 1-.46-.11Zm9.67-3.107c.192 1.557-.045 2.768-.595 3.09a.907.907 0 0 1-.469.106c-.844 0-2.095-.672-3.424-1.9.57-.599 1.141-1.28 1.683-2.034a19.039 19.039 0 0 0 2.593-.448c.094.412.167.807.212 1.186Zm1.57-2.719c-.351.15-.734.285-1.13.412a19.574 19.574 0 0 0-.917-2.483c.375-.848.677-1.675.905-2.47.404.126.787.265 1.146.415 1.443.616 2.376 1.423 2.376 2.063-.004.64-.937 1.452-2.38 2.063Z"/>
  <path fill="currentColor" d="M11.947 13.486a1.863 1.863 0 1 0 0-3.726 1.863 1.863 0 0 0 0 3.726Z"/>
</svg>
