<svg xmlns="http://www.w3.org/2000/svg" width="24" height="24" fill="none" viewBox="0 0 24 24">
  <path fill="currentColor" d="M12 5.75a1 1 0 1 0 0-2 1 1 0 0 0 0 2ZM12 13a1 1 0 1 0 0-2 1 1 0 0 0 0 2Zm0 7.25a1 1 0 1 0 0-2 1 1 0 0 0 0 2Zm7.25-14.5a1 1 0 1 0 0-2 1 1 0 0 0 0 2Zm0 7.25a1 1 0 1 0 0-2 1 1 0 0 0 0 2Zm0 7.25a1 1 0 1 0 0-2 1 1 0 0 0 0 2ZM4.75 13a1 1 0 1 0 0-2 1 1 0 0 0 0 2Zm0 7.25a1 1 0 1 0 0-2 1 1 0 0 0 0 2Zm0-14.5a1 1 0 1 0 0-2 1 1 0 0 0 0 2Z"/>
  <path stroke="currentColor" stroke-linecap="round" stroke-linejoin="round" stroke-width="1.5" d="M12 5.75a1 1 0 1 0 0-2 1 1 0 0 0 0 2ZM12 13a1 1 0 1 0 0-2 1 1 0 0 0 0 2Zm0 7.25a1 1 0 1 0 0-2 1 1 0 0 0 0 2Zm7.25-14.5a1 1 0 1 0 0-2 1 1 0 0 0 0 2Zm0 7.25a1 1 0 1 0 0-2 1 1 0 0 0 0 2Zm0 7.25a1 1 0 1 0 0-2 1 1 0 0 0 0 2ZM4.75 13a1 1 0 1 0 0-2 1 1 0 0 0 0 2Zm0 7.25a1 1 0 1 0 0-2 1 1 0 0 0 0 2Zm0-14.5a1 1 0 1 0 0-2 1 1 0 0 0 0 2Z"/>
</svg>
