<svg xmlns="http://www.w3.org/2000/svg" width="24" height="24" fill="none" viewBox="0 0 24 24">
  <path fill="currentColor" fill-rule="evenodd" d="m6 1.869 5.492 5V2h1v4.87l5.508-5v5.687h2.254v8.537H18v6.095L12.492 16.8V22h-1v-5.163l-5.398 5.35L6.027 16H3.5V7.556H6V1.869Zm1 5.687h3.762L7 4.131v3.425Zm3.778 1H4.5V15h1.516l-.018-1.706 4.78-4.738Zm.714.7-4.49 4.45.066 6.107 4.424-4.384V9.256Zm1.002 0 .01 6.158L17 19.812v-6.103l-4.506-4.453Zm.715-.7L18 13.291v1.803h1.254V8.558h-6.045Zm.016-1H17v-3.36l-.07-.003-3.705 3.363Z" clip-rule="evenodd"/>
</svg>
