<svg xmlns="http://www.w3.org/2000/svg" width="24" height="24" fill="none" viewBox="0 0 24 24">
  <path stroke="currentColor" stroke-linecap="round" stroke-linejoin="round" stroke-width="1.5" d="M10.23 9.396c0 2.013-1.675 3.646-3.74 3.646-2.066 0-3.74-1.633-3.74-3.646 0-2.014 1.674-3.646 3.74-3.646 2.065 0 3.74 1.632 3.74 3.646Zm0 0c.267 4.948-2.137 6.77-5.343 8.854M21.23 9.396c0 2.013-1.675 3.646-3.74 3.646-2.066 0-3.74-1.633-3.74-3.646 0-2.014 1.674-3.646 3.74-3.646 2.065 0 3.74 1.632 3.74 3.646Zm0 0c.267 4.948-2.137 6.77-5.343 8.854"/>
</svg>
