<svg xmlns="http://www.w3.org/2000/svg" width="24" height="24" fill="none" viewBox="0 0 24 24">
  <path fill="currentColor" fill-rule="evenodd" d="M12 2a5.346 5.346 0 0 0-5.342 5.351 5.353 5.353 0 0 0 4.335 5.256 6.481 6.481 0 0 1 6.038-3.455c.2-.562.31-1.168.31-1.8A5.346 5.346 0 0 0 12 2Zm.72 17.18A5.324 5.324 0 0 0 16.733 21a5.346 5.346 0 0 0 5.341-5.351 5.349 5.349 0 0 0-5.341-5.351c-1.6 0-3.035.703-4.015 1.82a6.492 6.492 0 0 1 1.04 3.53 6.475 6.475 0 0 1-1.04 3.531Zm-.423-5.333c.2.563.31 1.169.31 1.802a5.331 5.331 0 0 1-1.068 3.211A5.33 5.33 0 0 1 7.266 21a5.346 5.346 0 0 1-5.342-5.351 5.35 5.35 0 0 1 4.335-5.256 6.497 6.497 0 0 0 6.038 3.454Z" clip-rule="evenodd"/>
</svg>
