<svg xmlns="http://www.w3.org/2000/svg" width="24" height="24" fill="none" viewBox="0 0 24 24">
  <path fill="currentColor" fill-rule="evenodd" d="M11.45 2.15a2.2 2.2 0 0 1 1.968 1.216l3.635 7.27a7.194 7.194 0 0 0 1.58-3.372 2.2 2.2 0 1 1 4.333.771 11.619 11.619 0 0 1-3.841 6.745l1.442 2.886a2.2 2.2 0 0 1-3.935 1.967l-1.325-2.65a11.64 11.64 0 0 1-3.788.63c-1.37 0-2.685-.237-3.905-.672l-1.346 2.692a2.2 2.2 0 0 1-3.935-1.967l1.484-2.97a11.67 11.67 0 0 1-2.556-3.232A2.2 2.2 0 0 1 5.14 9.39c.216.406.471.788.758 1.143l3.583-7.166A2.2 2.2 0 0 1 11.45 2.15ZM9.606 12.958c.61.166 1.25.255 1.913.255a7.24 7.24 0 0 0 1.791-.223l-1.86-3.721-1.844 3.689Z" clip-rule="evenodd"/>
</svg>
