<svg xmlns="http://www.w3.org/2000/svg" width="24" height="24" fill="none" viewBox="0 0 24 24">
  <path fill="currentColor" d="M10.5 16v-1.5h3V16a1.5 1.5 0 0 1-3 0Z"/>
  <path fill="currentColor" fill-rule="evenodd" d="M4.75 3h14.5c.966 0 1.75.784 1.75 1.75v14.5A1.75 1.75 0 0 1 19.25 21H4.75A1.75 1.75 0 0 1 3 19.25V4.75C3 3.784 3.784 3 4.75 3Zm5 2a.75.75 0 0 0 0 1.5h4.5a.75.75 0 0 0 0-1.5h-4.5ZM9 9.75A.75.75 0 0 1 9.75 9h4.5a.75.75 0 0 1 0 1.5h-4.5A.75.75 0 0 1 9 9.75ZM9.75 13a.75.75 0 0 0-.75.75V16a3 3 0 1 0 6 0v-2.25a.75.75 0 0 0-.75-.75h-4.5Z" clip-rule="evenodd"/>
</svg>
