<svg xmlns="http://www.w3.org/2000/svg" width="24" height="24" fill="none" viewBox="0 0 24 24">
  <path fill="currentColor" d="M8.25 3.25a.75.75 0 0 0 1.5 0h-1.5Zm1.5-1.5a.75.75 0 0 0-1.5 0h1.5Zm6 19a.75.75 0 0 0-1.5 0h1.5Zm-1.5 1.5a.75.75 0 0 0 1.5 0h-1.5Zm-11-12.5a.75.75 0 0 0 0-1.5v1.5Zm-1.5-1.5a.75.75 0 0 0 0 1.5v-1.5Zm19 6a.75.75 0 0 0 0 1.5v-1.5Zm1.5 1.5a.75.75 0 0 0 0-1.5v1.5ZM4.22 5.28a.75.75 0 0 0 1.06-1.06L4.22 5.28Zm-.44-2.56a.75.75 0 0 0-1.06 1.06l1.06-1.06Zm16 16a.75.75 0 1 0-1.06 1.06l1.06-1.06Zm.44 2.56a.75.75 0 1 0 1.06-1.06l-1.06 1.06ZM3.207 15.207l.53-.53-.53.53Zm5.586 5.586-.53.53.53-.53Zm12-12-.53.53.53-.53Zm-5.586-5.586-.53.53.53-.53Zm-1.414 0 .53.53-.53-.53ZM10.22 5.72a.75.75 0 1 0 1.06 1.06l-1.06-1.06Zm-3.44 5.56a.75.75 0 1 0-1.06-1.06l1.06 1.06Zm-3.573 2.513.53.53-.53-.53ZM17.22 12.72a.75.75 0 1 0 1.06 1.06l-1.06-1.06Zm3.573-2.513.53.53-.53-.53ZM10.207 20.793l-.53-.53.53.53Zm3.573-2.513a.75.75 0 1 0-1.06-1.06l1.06 1.06ZM9.75 3.25v-1.5h-1.5v1.5h1.5Zm4.5 17.5v1.5h1.5v-1.5h-1.5Zm-11-12.5h-1.5v1.5h1.5v-1.5Zm17.5 7.5h1.5v-1.5h-1.5v1.5ZM5.28 4.22l-1.5-1.5-1.06 1.06 1.5 1.5 1.06-1.06Zm13.44 15.56 1.5 1.5 1.06-1.06-1.5-1.5-1.06 1.06ZM2.677 15.737l5.586 5.586 1.06-1.06-5.586-5.586-1.06 1.06Zm18.646-7.474-5.586-5.586-1.06 1.06 5.586 5.586 1.06-1.06Zm-8.06-5.586L10.22 5.72l1.06 1.06 3.043-3.043-1.06-1.06ZM5.72 10.22l-3.043 3.043 1.06 1.06L6.78 11.28l-1.06-1.06Zm12.56 3.56 3.043-3.043-1.06-1.06-3.043 3.043 1.06 1.06Zm-7.543 7.543 3.043-3.043-1.06-1.06-3.043 3.043 1.06 1.06Zm9.526-12a.25.25 0 0 1 0 .354l1.06 1.06a1.75 1.75 0 0 0 0-2.474l-1.06 1.06Zm-12 12a1.75 1.75 0 0 0 2.474 0l-1.06-1.06a.25.25 0 0 1-.354 0l-1.06 1.06Zm-4.526-6.646a.25.25 0 0 1 0-.354l-1.06-1.06a1.75 1.75 0 0 0 0 2.474l1.06-1.06Zm12-12a1.75 1.75 0 0 0-2.474 0l1.06 1.06a.25.25 0 0 1 .354 0l1.06-1.06Z"/>
</svg>
