<svg xmlns="http://www.w3.org/2000/svg" width="24" height="24" fill="none" viewBox="0 0 24 24">
  <path fill="currentColor" d="M6 8.5a1 1 0 1 0 2 0 1 1 0 0 0-2 0ZM6 12a1 1 0 1 0 2 0 1 1 0 0 0-2 0Zm0 3.5a1 1 0 1 0 2 0 1 1 0 0 0-2 0Z"/>
  <path fill="currentColor" fill-rule="evenodd" d="M2 5.75C2 4.784 2.784 4 3.75 4h16.5c.966 0 1.75.784 1.75 1.75v12.5A1.75 1.75 0 0 1 20.25 20H3.75A1.75 1.75 0 0 1 2 18.25V5.75Zm1.75-.25a.25.25 0 0 0-.25.25v12.5c0 .138.112.25.25.25h6.75v-13H3.75Z" clip-rule="evenodd"/>
</svg>
