<svg xmlns="http://www.w3.org/2000/svg" width="24" height="24" fill="none" viewBox="0 0 24 24">
  <path stroke="currentColor" stroke-linecap="round" stroke-linejoin="round" stroke-width="1.5" d="M11.852 13.251c-3.72.065-6.428 2.567-7.18 5.915-.13.575.337 1.084.926 1.084H12.5m-.648-6.999L12 13.25c.352 0 .695.022 1.029.064m-1.177-.063A7.889 7.889 0 0 0 10 13.5m3.029-.186c.334.042.658.104.971.186m-.971-.186a7.476 7.476 0 0 1 1.971.524m3.25 1.412v3m0 0v3m0-3h-3m3 0h3M15.75 6.5a3.75 3.75 0 1 1-7.5 0 3.75 3.75 0 0 1 7.5 0Z"/>
</svg>
