<svg xmlns="http://www.w3.org/2000/svg" width="24" height="24" fill="none" viewBox="0 0 24 24">
  <path fill="currentColor" fill-rule="evenodd" d="M9.737 9.34a.41.41 0 0 0-.41.41v4.554c0 .226.184.41.41.41h4.555a.41.41 0 0 0 .41-.41V9.75a.41.41 0 0 0-.41-.41H9.737ZM6.452 6.089a.375.375 0 0 0-.375.375V17.59c0 .207.168.375.375.375h11.126a.375.375 0 0 0 .375-.375V6.464a.375.375 0 0 0-.375-.375H6.452Z" clip-rule="evenodd"/>
  <path fill="currentColor" fill-rule="evenodd" d="M2 12.213v7.234c0 .485.135.939.37 1.325l2.609-2.608v-5.951H2Zm1.19 9.393 2.585-2.586a.895.895 0 0 0 .055.001h5.698V22H4.553c-.501 0-.97-.145-1.364-.394Zm9.506.394h6.75A2.553 2.553 0 0 0 22 19.447V4.553A2.553 2.553 0 0 0 19.447 2h-7.234v2.979h5.957c.47 0 .851.38.851.85V18.17a.85.85 0 0 1-.85.851h-5.475V22Z" clip-rule="evenodd"/>
</svg>
