<svg xmlns="http://www.w3.org/2000/svg" width="24" height="24" fill="none" viewBox="0 0 24 24">
  <path stroke="currentColor" stroke-linecap="square" stroke-linejoin="round" stroke-width="1.5" d="M11.25 4.75h-7.5a1 1 0 0 0-1 1v12.5a1 1 0 0 0 1 1h7.5m0-14.5h9a1 1 0 0 1 1 1v12.5a1 1 0 0 1-1 1h-9m0-14.5v14.5"/>
  <path fill="currentColor" stroke="currentColor" stroke-width=".5" d="M6.25 8.5a.75.75 0 1 0 1.5 0 .75.75 0 0 0-1.5 0Zm0 3.5a.75.75 0 1 0 1.5 0 .75.75 0 0 0-1.5 0Zm0 3.5a.75.75 0 1 0 1.5 0 .75.75 0 0 0-1.5 0Z"/>
</svg>
