<svg xmlns="http://www.w3.org/2000/svg" width="24" height="24" fill="none" viewBox="0 0 24 24">
  <path fill="currentColor" d="M19.636 5.023a18.124 18.124 0 0 0-4.539-1.404c-.214.386-.408.782-.581 1.188a16.814 16.814 0 0 0-5.037 0 12.618 12.618 0 0 0-.582-1.188 18.253 18.253 0 0 0-4.542 1.407C1.483 9.3.705 13.465 1.093 17.572A18.254 18.254 0 0 0 6.66 20.38c.45-.61.85-1.256 1.192-1.933a11.894 11.894 0 0 1-1.877-.9c.157-.115.311-.234.46-.348a13.02 13.02 0 0 0 11.13 0c.15.123.304.241.46.347-.6.356-1.229.658-1.88.903.341.677.74 1.323 1.191 1.931a18.173 18.173 0 0 0 5.57-2.808c.457-4.762-.78-8.89-3.27-12.55ZM8.346 15.046c-1.086 0-1.982-.99-1.982-2.207 0-1.218.865-2.217 1.978-2.217s2.002.999 1.983 2.216c-.02 1.218-.874 2.208-1.98 2.208Zm7.309 0c-1.087 0-1.98-.99-1.98-2.207 0-1.218.865-2.217 1.98-2.217 1.114 0 1.996.999 1.977 2.216-.019 1.218-.872 2.208-1.978 2.208Z"/>
</svg>
