<svg xmlns="http://www.w3.org/2000/svg" width="24" height="24" fill="none" viewBox="0 0 24 24">
  <path fill="currentColor" fill-rule="evenodd" d="M21.85 6.626a.323.323 0 0 1 .012.083v4.389a.32.32 0 0 1-.161.277l-3.684 2.121V17.7a.32.32 0 0 1-.16.277l-7.689 4.427c-.018.01-.037.016-.056.023-.007.003-.014.007-.022.009a.321.321 0 0 1-.164 0l-.025-.01c-.017-.007-.036-.012-.053-.022l-7.687-4.427A.32.32 0 0 1 2 17.7V4.534c0-.03.004-.057.011-.084l.011-.027c.006-.017.012-.034.02-.05l.023-.028c.009-.013.017-.026.028-.037.01-.01.021-.016.032-.024a.239.239 0 0 1 .035-.028l3.844-2.213a.32.32 0 0 1 .32 0l3.844 2.213c.013.008.025.018.036.027.01.008.022.015.032.024l.028.038c.007.01.016.018.022.028.01.016.014.033.02.05.004.009.01.017.012.027a.323.323 0 0 1 .011.084v8.223l3.203-1.844V6.709c0-.028.004-.057.012-.083.002-.01.008-.018.01-.028.007-.016.013-.034.022-.05.006-.01.014-.018.021-.028.01-.012.018-.026.029-.037l.031-.024c.012-.01.023-.02.035-.027l3.845-2.214a.32.32 0 0 1 .32 0l3.844 2.214c.014.008.024.018.036.027.01.008.022.015.031.024.011.011.02.025.029.037.007.01.016.018.021.029.01.015.015.033.021.05.004.009.009.017.011.027Zm-.63 4.287v-3.65l-3.203 1.845v3.65l3.204-1.845Zm-3.843 6.602v-3.652l-7.048 4.023v3.686l7.048-4.057ZM2.64 5.088v12.427l7.047 4.057v-3.686l-3.682-2.083v-.001h-.002c-.013-.008-.023-.018-.035-.027-.01-.008-.021-.015-.03-.024h-.001c-.01-.01-.018-.023-.026-.034-.008-.011-.018-.02-.024-.032-.008-.013-.012-.027-.018-.04-.005-.013-.012-.024-.015-.037-.004-.015-.005-.031-.006-.047-.002-.012-.005-.024-.005-.036V6.932L2.641 5.088ZM6.165 2.69 2.962 4.534l3.202 1.843 3.202-1.844L6.165 2.69Zm3.523 10.436V5.088L6.485 6.932v8.038l3.203-1.844Zm8.01-8.26-3.203 1.843 3.202 1.844L20.9 6.709l-3.202-1.843Zm-.321 4.242-3.204-1.845v3.65l3.204 1.844v-3.65Zm-7.369 8.224 7.045-4.022-3.2-1.842-7.042 4.054 3.197 1.81Z" clip-rule="evenodd"/>
</svg>
