<svg xmlns="http://www.w3.org/2000/svg" width="24" height="24" fill="none" viewBox="0 0 24 24">
  <path fill="currentColor" d="m12 6.5.607-.441a.75.75 0 0 0-1.214 0L12 6.5ZM8 12l-.607-.441a.75.75 0 0 0 0 .882L8 12Zm4 5.5-.607.441a.75.75 0 0 0 1.214 0L12 17.5Zm4-5.5.607.441a.75.75 0 0 0 0-.882L16 12Zm-4 1.5-.263.702a.75.75 0 0 0 .526 0L12 13.5Zm-.607-7.441-4 5.5 1.214.882 4-5.5-1.214-.882Zm-4 6.382 4 5.5 1.214-.882-4-5.5-1.214.882Zm5.214 5.5 4-5.5-1.214-.882-4 5.5 1.214.882Zm4-6.382-4-5.5-1.214.882 4 5.5 1.214-.882Zm-8.87 1.143 4 1.5.526-1.404-4-1.5-.526 1.404Zm4.526 1.5 4-1.5-.526-1.404-4 1.5.526 1.404ZM20.5 12a8.5 8.5 0 0 1-8.5 8.5V22c5.523 0 10-4.477 10-10h-1.5ZM12 20.5A8.5 8.5 0 0 1 3.5 12H2c0 5.523 4.477 10 10 10v-1.5ZM3.5 12A8.5 8.5 0 0 1 12 3.5V2C6.477 2 2 6.477 2 12h1.5ZM12 3.5a8.5 8.5 0 0 1 8.5 8.5H22c0-5.523-4.477-10-10-10v1.5Z"/>
</svg>
