<svg xmlns="http://www.w3.org/2000/svg" width="24" height="24" fill="none" viewBox="0 0 24 24">
  <path fill="currentColor" d="m19.25 21.25-.493.566A.75.75 0 0 0 20 21.25h-.75ZM16.667 19l.492-.566a.75.75 0 0 0-1.013.026l.52.54Zm-2.334 2.25-.52.54c.29.28.75.28 1.04 0l-.52-.54ZM12 19l.52-.54a.75.75 0 0 0-1.04 0L12 19Zm-2.333 2.25-.52.54c.29.28.75.28 1.04 0l-.52-.54ZM7.333 19l.52-.54a.75.75 0 0 0-1.012-.026l.492.566ZM4.75 21.25H4a.75.75 0 0 0 1.243.566l-.493-.566ZM15.792 8.28a.75.75 0 0 0-1.06-1.06l1.06 1.06Zm-7.56 5.44a.75.75 0 1 0 1.06 1.06l-1.06-1.06ZM5.75 3.5h12.5V2H5.75v1.5Zm12.75.25v17.5H20V3.75h-1.5Zm1.243 16.934-2.584-2.25-.985 1.132 2.583 2.25.986-1.132Zm-3.597-2.224-2.333 2.25 1.04 1.08 2.334-2.25-1.04-1.08Zm-1.292 2.25-2.333-2.25-1.042 1.08 2.334 2.25 1.04-1.08Zm-3.375-2.25-2.333 2.25 1.041 1.08 2.334-2.25-1.042-1.08Zm-1.292 2.25-2.333-2.25-1.041 1.08 2.333 2.25 1.041-1.08Zm-3.346-2.276-2.584 2.25.986 1.132 2.583-2.25-.985-1.132ZM5.5 21.25V3.75H4v17.5h1.5ZM18.25 3.5a.25.25 0 0 1 .25.25H20A1.75 1.75 0 0 0 18.25 2v1.5ZM5.75 2A1.75 1.75 0 0 0 4 3.75h1.5a.25.25 0 0 1 .25-.25V2Zm8.981 5.22-6.5 6.5 1.061 1.06 6.5-6.5-1.06-1.06Z"/>
  <path stroke="currentColor" stroke-linecap="round" stroke-width="1.5" d="M9 8v-.01m.25.01a.25.25 0 1 1-.5 0 .25.25 0 0 1 .5 0ZM15 14v-.01m.25.01a.25.25 0 1 1-.5 0 .25.25 0 0 1 .5 0Z"/>
</svg>
