<svg xmlns="http://www.w3.org/2000/svg" width="24" height="24" fill="none" viewBox="0 0 24 24">
  <path fill="currentColor" fill-rule="evenodd" d="M19.295 11.265a6.565 6.565 0 0 1-4.524 7.024 6.527 6.527 0 0 1-7.725-3.13c-2.542.105-4.85-1.403-5.762-3.723a.78.78 0 0 1 .674-1.06l3.391-.21-.842-2.679a2.219 2.219 0 0 1 .39-2.057 2.206 2.206 0 0 1 1.925-.813c1.842.176 3.065.169 3.67-.021.604-.19 1.593-.878 2.967-2.062a2.2 2.2 0 0 1 3.538 1.013L17.83 6.2l2.852-1.754a.773.773 0 0 1 1.159.48c.573 2.408-.437 4.953-2.546 6.338Zm-8.676 8.663-1.548-.742a1.093 1.093 0 0 0-.936 1.974l1.549.741a1.093 1.093 0 0 0 .936-1.974h-.001Zm10.803-4.595a1.084 1.084 0 0 0-1.483.413l-.844 1.497a1.088 1.088 0 0 0 1.894 1.076l.844-1.496a1.094 1.094 0 0 0-.41-1.49Z" clip-rule="evenodd"/>
</svg>
