<svg xmlns="http://www.w3.org/2000/svg" width="24" height="24" fill="none" viewBox="0 0 24 24">
  <path fill="currentColor" fill-rule="evenodd" d="M6.641 9.298a4.75 4.75 0 0 1 6.718 0l.343.343a4.733 4.733 0 0 1 1.354 2.766.75.75 0 0 1-1.488.186 3.233 3.233 0 0 0-.927-1.891l-.343-.343a3.25 3.25 0 0 0-4.596 0l-3.343 3.343a3.25 3.25 0 0 0 0 4.596l.343.343a3.25 3.25 0 0 0 4.596 0l.172-.171a.75.75 0 1 1 1.06 1.06l-.171.172a4.75 4.75 0 0 1-6.718 0l-.343-.343a4.75 4.75 0 0 1 0-6.718l3.343-3.343Z" clip-rule="evenodd"/>
  <path fill="currentColor" fill-rule="evenodd" d="M13.641 5.298a4.75 4.75 0 0 1 6.718 0l.343.343a4.75 4.75 0 0 1 0 6.718l-3.343 3.343a4.75 4.75 0 0 1-6.718 0l-.343-.343a4.733 4.733 0 0 1-1.354-2.766.75.75 0 1 1 1.488-.186c.087.691.395 1.36.927 1.891l.343.343a3.25 3.25 0 0 0 4.596 0l3.343-3.343a3.25 3.25 0 0 0 0-4.596l-.343-.343a3.25 3.25 0 0 0-4.596 0l-.172.171a.75.75 0 0 1-1.06-1.06l.171-.172Z" clip-rule="evenodd"/>
</svg>
