<svg xmlns="http://www.w3.org/2000/svg" width="24" height="24" fill="none" viewBox="0 0 24 24">
  <path fill="currentColor" fill-rule="evenodd" d="M2 4.75C2 3.784 2.784 3 3.75 3h16.5c.966 0 1.75.784 1.75 1.75v12.5A1.75 1.75 0 0 1 20.25 19h-4.256l.727 2.544a.75.75 0 1 1-1.442.412L14.434 19H9.566l-.845 2.956a.75.75 0 0 1-1.442-.412L8.006 19H3.75A1.75 1.75 0 0 1 2 17.25V4.75Zm6.5 8a.75.75 0 0 0-1.5 0v1.5a.75.75 0 0 0 1.5 0v-1.5ZM12 7a.75.75 0 0 1 .75.75v6.5a.75.75 0 0 1-1.5 0v-6.5A.75.75 0 0 1 12 7Zm5 3.75a.75.75 0 0 0-1.5 0v3.5a.75.75 0 0 0 1.5 0v-3.5Z" clip-rule="evenodd"/>
</svg>
